<?xml version="1.0" encoding="utf-8"?>
<svg xmlns="http://www.w3.org/2000/svg" viewBox="1.87 1.833 252.501 118.347">
  <path d="M 2.16 118.934 L 2.16 58.86 L 15.261 58.86 L 15.261 65.468 C 17.937 60.118 22.067 57.443 27.654 57.443 C 30.172 57.443 32.435 58.132 34.44 59.509 C 36.447 60.886 37.883 63.069 38.748 66.059 C 40.244 63.069 42.112 60.886 44.355 59.509 C 46.598 58.132 49.096 57.443 51.849 57.443 C 53.975 57.443 56.02 57.915 57.987 58.86 C 59.954 59.804 61.587 61.495 62.885 63.934 C 64.183 66.374 64.832 69.836 64.832 74.32 L 64.832 118.934 L 51.614 118.934 L 51.614 76.327 C 51.614 73.338 51.142 71.233 50.197 70.013 C 49.253 68.793 47.876 68.183 46.066 68.183 C 44.335 68.183 42.899 68.774 41.758 69.954 C 40.618 71.135 40.047 73.416 40.047 76.8 L 40.047 118.934 L 26.828 118.934 L 26.828 76.327 C 26.828 73.258 26.316 71.135 25.294 69.954 C 24.271 68.774 22.972 68.183 21.399 68.183 C 19.825 68.183 18.428 68.735 17.209 69.836 C 15.989 70.938 15.38 73.219 15.38 76.681 L 15.38 118.934 L 2.16 118.934 Z M 82.216 119.879 C 77.652 119.879 74.092 118.443 71.535 115.571 C 68.978 112.699 67.699 108.666 67.699 103.474 C 67.699 98.28 69.056 94.228 71.77 91.316 C 74.485 88.405 78.282 86.084 83.161 84.353 L 94.018 80.341 L 94.018 75.501 C 94.018 72.511 93.448 70.466 92.308 69.363 C 91.166 68.262 89.652 67.712 87.764 67.712 C 85.718 67.712 84.084 68.42 82.865 69.836 C 81.645 71.252 80.839 73.849 80.446 77.626 L 68.289 76.092 C 68.919 70.032 70.905 65.41 74.25 62.223 C 77.593 59.036 82.294 57.443 88.353 57.443 C 100.943 57.443 107.238 63.974 107.238 77.035 L 107.238 103.591 C 107.238 105.559 107.258 107.565 107.297 109.611 C 107.336 111.657 107.473 114.765 107.71 118.934 L 95.435 118.934 L 94.727 112.443 C 93.468 114.961 91.757 116.831 89.593 118.05 C 87.429 119.269 84.97 119.879 82.216 119.879 Z M 80.682 102.411 C 80.682 105.401 81.213 107.486 82.275 108.666 C 83.337 109.847 84.851 110.437 86.819 110.437 C 89.022 110.437 90.773 109.709 92.071 108.253 C 93.369 106.798 94.018 104.929 94.018 102.647 L 94.018 89.31 L 88.118 91.789 C 85.835 92.812 84.026 94.07 82.688 95.565 C 81.351 97.061 80.682 99.342 80.682 102.411 Z M 112.464 118.934 L 112.464 58.86 L 125.565 58.86 L 125.565 66.886 C 126.825 63.58 128.457 61.219 130.463 59.804 C 132.47 58.388 134.574 57.68 136.778 57.68 C 137.328 57.68 137.919 57.719 138.548 57.797 C 139.177 57.876 139.846 58.034 140.554 58.269 L 140.554 70.071 C 137.801 69.758 135.303 69.777 133.06 70.131 C 130.818 70.485 129.028 71.468 127.69 73.082 C 126.352 74.695 125.683 77.272 125.683 80.813 L 125.683 118.934 L 112.464 118.934 Z M 142.232 118.934 L 142.232 35.136 L 155.452 35.136 L 155.452 83.409 L 169.496 58.86 L 182.243 58.86 L 169.024 81.638 L 182.715 118.934 L 169.261 118.934 L 159.818 92.378 L 155.452 100.051 L 155.452 118.934 L 142.232 118.934 Z" style="text-wrap-mode: nowrap;"/>
  <path d="M 191.778 69.87 L 208.639 88.754 L 208.639 2.595 L 225.837 2.595 L 225.837 88.754 L 242.698 69.87 L 253.826 80.998 L 217.238 117.586 L 180.65 80.998 L 191.778 69.87 Z" style="text-wrap-mode: nowrap;"/>
</svg>