<?xml version="1.0" encoding="utf-8"?>
<svg xmlns="http://www.w3.org/2000/svg" viewBox="1.87 1.833 140.507 118.347">
  <style>
    path {
      fill: hsl(271, 40%, 28%);
    }
    @media (prefers-color-scheme: dark) {
      path {
        fill: hsl(44, 61%, 95%);
      }
    }
  </style>
  <path d="M 2.16 118.934 L 2.16 58.86 L 15.261 58.86 L 15.261 65.468 C 17.937 60.118 22.067 57.443 27.654 57.443 C 30.172 57.443 32.435 58.132 34.44 59.509 C 36.447 60.886 37.883 63.069 38.748 66.059 C 40.244 63.069 42.112 60.886 44.355 59.509 C 46.598 58.132 49.096 57.443 51.849 57.443 C 53.975 57.443 56.02 57.915 57.987 58.86 C 59.954 59.804 61.587 61.495 62.885 63.934 C 64.183 66.374 64.832 69.836 64.832 74.32 L 64.832 118.934 L 51.614 118.934 L 51.614 76.327 C 51.614 73.338 51.142 71.233 50.197 70.013 C 49.253 68.793 47.876 68.183 46.066 68.183 C 44.335 68.183 42.899 68.774 41.758 69.954 C 40.618 71.135 40.047 73.416 40.047 76.8 L 40.047 118.934 L 26.828 118.934 L 26.828 76.327 C 26.828 73.258 26.316 71.135 25.294 69.954 C 24.271 68.774 22.972 68.183 21.399 68.183 C 19.825 68.183 18.428 68.735 17.209 69.836 C 15.989 70.938 15.38 73.219 15.38 76.681 L 15.38 118.934 L 2.16 118.934 Z" style="text-wrap-mode: nowrap;"/>
  <path d="M 78.778 69.87 L 95.639 88.754 L 95.639 2.595 L 112.837 2.595 L 112.837 88.754 L 129.698 69.87 L 140.826 80.998 L 104.238 117.586 L 67.65 80.998 L 78.778 69.87 Z" style="text-wrap-mode: nowrap;"/>
</svg>